<?xml version="1.0" encoding="utf-8"?>
<!-- Generator: Adobe Illustrator 19.0.0, SVG Export Plug-In . SVG Version: 6.00 Build 0)  -->
<svg version="1.1" id="Layer_1" xmlns="http://www.w3.org/2000/svg" xmlns:xlink="http://www.w3.org/1999/xlink" x="0px" y="0px"
	 viewBox="0 0 20 15.7" width="20px" height="20px" style="enable-background:new 0 0 20 15.7;" xml:space="preserve">
<style type="text/css">
	.st0{fill:#4B80C2;}
</style>
<g id="XMLID_28_">
	<path id="XMLID_29_" class="st0" d="M20,13.9c0,1-0.8,1.8-1.8,1.8H1.8c-1,0-1.8-0.8-1.8-1.8V1.8C0,0.8,0.8,0,1.8,0h16.4
		c1,0,1.8,0.8,1.8,1.8V13.9z M18.2,1.4H1.8c-0.2,0-0.4,0.2-0.4,0.4c0,1.3,0.6,2.4,1.6,3.2c1.5,1.2,3,2.4,4.5,3.5C8.1,9,9.2,10,10,10
		h0h0c0.8,0,1.9-1,2.4-1.5c1.5-1.2,3-2.4,4.5-3.5c0.7-0.6,1.6-1.8,1.6-2.8C18.6,1.9,18.6,1.4,18.2,1.4z M18.6,5.4
		c-0.2,0.3-0.5,0.5-0.8,0.7c-1.6,1.2-3.2,2.5-4.8,3.8c-0.8,0.7-1.9,1.6-3,1.6h0h0c-1.2,0-2.2-0.9-3-1.6C5.4,8.6,3.8,7.3,2.2,6.1
		C1.9,5.9,1.7,5.6,1.4,5.4v8.6c0,0.2,0.2,0.4,0.4,0.4h16.4c0.2,0,0.4-0.2,0.4-0.4V5.4z"/>
</g>
</svg>
