<?xml version="1.0" encoding="utf-8"?>
<!-- Generator: Adobe Illustrator 19.0.0, SVG Export Plug-In . SVG Version: 6.00 Build 0)  -->
<svg version="1.1" id="Layer_1" xmlns="http://www.w3.org/2000/svg" xmlns:xlink="http://www.w3.org/1999/xlink" x="0px" y="0px"
	 viewBox="0 0 43 27.9" style="enable-background:new 0 0 43 27.9;" xml:space="preserve">
<style type="text/css">
	.st0{fill:none;stroke:#4183D7;stroke-width:2;stroke-linecap:round;stroke-linejoin:round;stroke-miterlimit:10;}
	.st1{clip-path:url(#SVGID_2_);fill:#CFDCEE;}
</style>
<path class="st0" d="M42,14c-3.6,7.7-11.4,13-20.5,13c-9,0-16.9-5.3-20.5-13C4.6,6.3,12.4,1,21.5,1C30.5,1,38.3,6.3,42,14z"/>
<g>
	<defs>
		<path id="SVGID_1_" d="M20,16c1.7,0,3-1.3,3-3s-1.3-3-3-3c-1.7,0-3,1.3-3,3S18.3,16,20,16z M21.5,22c4.1,0,7.5-3.4,7.5-7.5
			S25.6,7,21.5,7c-4.1,0-7.5,3.4-7.5,7.5S17.3,22,21.5,22z"/>
	</defs>
	<clipPath id="SVGID_2_">
		<use xlink:href="#SVGID_1_"  style="overflow:visible;"/>
	</clipPath>
	<rect x="9" y="2" class="st1" width="25" height="25"/>
</g>
<path class="st0" d="M20,16c1.7,0,3-1.3,3-3c0-1.7-1.3-3-3-3c-1.7,0-3,1.3-3,3C17,14.6,18.3,16,20,16z M21.5,22
	c4.1,0,7.5-3.4,7.5-7.5c0-4.1-3.4-7.5-7.5-7.5c-4.1,0-7.5,3.4-7.5,7.5C14,18.6,17.3,22,21.5,22z"/>
</svg>
