<?xml version="1.0" encoding="utf-8"?>
<!-- Generator: Adobe Illustrator 19.0.0, SVG Export Plug-In . SVG Version: 6.00 Build 0)  -->
<svg version="1.1" id="Layer_1" xmlns="http://www.w3.org/2000/svg" xmlns:xlink="http://www.w3.org/1999/xlink" x="0px" y="0px"
	 viewBox="0 0 37.1 45.1" style="enable-background:new 0 0 37.1 45.1;" xml:space="preserve">
<style type="text/css">
	.st0{clip-path:url(#SVGID_2_);fill:#CFDCEE;}
	.st1{fill:none;stroke:#4183D7;stroke-width:2;stroke-linecap:round;stroke-linejoin:round;stroke-miterlimit:10;}
	.st2{clip-path:url(#SVGID_4_);fill:none;stroke:#4183D7;stroke-width:2;stroke-miterlimit:10;}
	.st3{clip-path:url(#SVGID_6_);fill:#CFDCEE;}
	
		.st4{clip-path:url(#SVGID_8_);fill:none;stroke:#4183D7;stroke-width:3;stroke-linecap:round;stroke-linejoin:round;stroke-miterlimit:10;}
</style>
<g>
	<defs>
		<path id="SVGID_1_" d="M31.4,10.2C29.6,4.8,24.5,1,18.6,1C11.1,1,5.1,7,5.1,14.5v5c0,7.5,6,13.5,13.5,13.5c0.2,0,0.3,0,0.5,0V14
			C19.1,14,26.8,10.9,31.4,10.2z"/>
	</defs>
	<clipPath id="SVGID_2_">
		<use xlink:href="#SVGID_1_"  style="overflow:visible;"/>
	</clipPath>
	<rect x="0.1" y="-4" class="st0" width="36.3" height="42"/>
</g>
<path class="st1" d="M25.1,21c0-1.1-0.9-2-2-2c-1.1,0-2,0.9-2,2"/>
<path class="st1" d="M16.1,21c0-1.1-0.9-2-2-2c-1.1,0-2,0.9-2,2"/>
<path class="st1" d="M5.1,15c0,0,3.5-3.5,9-1.5s17-3.5,18-3.5"/>
<g>
	<defs>
		<path id="SVGID_3_" d="M5,15.1C5,7.3,11.3,1,19.1,1c7.8,0,14.1,6.3,14.1,14.1v2.8c0,7.8-6.3,14.1-14.1,14.1C11.3,32,5,25.7,5,17.9
			V15.1z"/>
	</defs>
	<clipPath id="SVGID_4_">
		<use xlink:href="#SVGID_3_"  style="overflow:visible;"/>
	</clipPath>
	<path class="st2" d="M5,15.1C5,7.3,11.3,1,19.1,1c7.8,0,14.1,6.3,14.1,14.1v2.8c0,7.8-6.3,14.1-14.1,14.1C11.3,32,5,25.7,5,17.9
		V15.1z"/>
	
		<use xlink:href="#SVGID_3_"  style="overflow:visible;fill-rule:evenodd;clip-rule:evenodd;fill:none;stroke:#4183D7;stroke-width:2;stroke-miterlimit:10;"/>
</g>
<g>
	<defs>
		<path id="SVGID_5_" d="M0.1,37.7c0-3.7,3-6.5,6.8-6.3l6.7,0.5l7.5,11l-21,2V37.7z"/>
	</defs>
	<clipPath id="SVGID_6_">
		<use xlink:href="#SVGID_5_"  style="overflow:visible;"/>
	</clipPath>
	<rect x="-4.9" y="26.5" class="st3" width="31" height="23.5"/>
</g>
<g>
	<defs>
		<path id="SVGID_7_" d="M0.5,38c0-3.6,3.1-6.6,6.8-6.6h22.5c3.8,0,6.8,2.9,6.8,6.6v6.6H0.5V38z"/>
	</defs>
	<clipPath id="SVGID_8_">
		<use xlink:href="#SVGID_7_"  style="overflow:visible;"/>
	</clipPath>
	<path class="st4" d="M0.5,38c0-3.6,3.1-6.6,6.8-6.6h22.5c3.8,0,6.8,2.9,6.8,6.6v6.6H0.5V38z"/>
	
		<use xlink:href="#SVGID_7_"  style="overflow:visible;fill-rule:evenodd;clip-rule:evenodd;fill:none;stroke:#4183D7;stroke-miterlimit:10;"/>
</g>
<polygon class="st1" points="19.1,40 13.1,32 25.1,32 "/>
</svg>
