<?xml version="1.0" encoding="utf-8"?>
<!-- Generator: Adobe Illustrator 19.0.0, SVG Export Plug-In . SVG Version: 6.00 Build 0)  -->
<svg version="1.1" id="Layer_1" xmlns="http://www.w3.org/2000/svg" xmlns:xlink="http://www.w3.org/1999/xlink" x="0px" y="0px"
	 viewBox="0 0 500 500" style="enable-background:new 0 0 500 500;" xml:space="preserve">
<style type="text/css">
	.st0{fill:#4183D7;}
</style>
<g>
	<g>
		<g>
			<path class="st0" d="M339.2,481.2c-24,0-43.5-19.5-43.5-43.5s19.5-43.5,43.5-43.5c24,0,43.5,19.5,43.5,43.5
				S363.2,481.2,339.2,481.2z M339.2,399.3c-21.2,0-38.4,17.2-38.4,38.4c0,21.2,17.2,38.4,38.4,38.4c21.2,0,38.4-17.2,38.4-38.4
				C377.6,416.5,360.4,399.3,339.2,399.3z"/>
		</g>
	</g>
</g>
<g>
	<g>
		<g>
			<path class="st0" d="M218,363.4c-18.2,0-33-14.8-33-33c0-18.2,14.8-33,33-33c18.2,0,33,14.8,33,33
				C251.1,348.5,236.2,363.4,218,363.4z M218,301.2c-16.1,0-29.2,13.1-29.2,29.2c0,16.1,13.1,29.2,29.2,29.2
				c16.1,0,29.2-13.1,29.2-29.2C247.2,314.2,234.1,301.2,218,301.2z"/>
		</g>
	</g>
</g>
<g>
	<path class="st0" d="M503.4,284.6c-18.8,0-34-15.3-34-34c0-18.8,15.3-34,34-34v2c-17.7,0-32,14.4-32,32c0,17.7,14.4,32,32,32V284.6
		z"/>
</g>
<g>
	<g>
		<g>
			<path class="st0" d="M460.2,463.3c-13.1,0-23.8-10.7-23.8-23.8c0-13.1,10.7-23.8,23.8-23.8c13.1,0,23.8,10.7,23.8,23.8
				C484,452.7,473.3,463.3,460.2,463.3z M460.2,418.6c-11.6,0-21,9.4-21,21c0,11.6,9.4,21,21,21c11.6,0,21-9.4,21-21
				C481.2,428,471.8,418.6,460.2,418.6z"/>
		</g>
	</g>
</g>
<g>
	<g>
		<g>
			<path class="st0" d="M286.1,249.7c-13.1,0-23.8-10.7-23.8-23.8c0-13.1,10.7-23.8,23.8-23.8c13.1,0,23.8,10.7,23.8,23.8
				C309.9,239.1,299.2,249.7,286.1,249.7z M286.1,205c-11.6,0-21,9.4-21,21c0,11.6,9.4,21,21,21c11.6,0,21-9.4,21-21
				C307.1,214.4,297.7,205,286.1,205z"/>
		</g>
	</g>
</g>
<g>
	<g>
		<g>
			<path class="st0" d="M152.8,404.1c-8.2,0-14.9-6.7-14.9-14.9c0-8.2,6.7-14.9,14.9-14.9c8.2,0,14.9,6.7,14.9,14.9
				C167.7,397.4,161,404.1,152.8,404.1z M152.8,376c-7.3,0-13.2,5.9-13.2,13.2c0,7.3,5.9,13.2,13.2,13.2c7.3,0,13.2-5.9,13.2-13.2
				C165.9,381.9,160,376,152.8,376z"/>
		</g>
	</g>
</g>
<g>
	<g>
		<g>
			<path class="st0" d="M177.3,221.5c-8.2,0-14.9-6.7-14.9-14.9s6.7-14.9,14.9-14.9c8.2,0,14.9,6.7,14.9,14.9
				S185.5,221.5,177.3,221.5z M177.3,193.4c-7.3,0-13.2,5.9-13.2,13.2c0,7.3,5.9,13.2,13.2,13.2c7.3,0,13.2-5.9,13.2-13.2
				C190.5,199.3,184.6,193.4,177.3,193.4z"/>
		</g>
	</g>
</g>
<g>
	<g>
		<g>
			<path class="st0" d="M406.2,296.5c-8.2,0-14.9-6.7-14.9-14.9c0-8.2,6.7-14.9,14.9-14.9c8.2,0,14.9,6.7,14.9,14.9
				C421.1,289.8,414.5,296.5,406.2,296.5z M406.2,268.4c-7.3,0-13.2,5.9-13.2,13.2c0,7.3,5.9,13.2,13.2,13.2
				c7.3,0,13.2-5.9,13.2-13.2C419.4,274.3,413.5,268.4,406.2,268.4z"/>
		</g>
	</g>
</g>
<g>
	<path class="st0" d="M307.9,410.1c-0.3,0-0.6-0.1-0.8-0.3l-65.3-59.6c-0.5-0.5-0.5-1.2-0.1-1.7c0.5-0.5,1.2-0.5,1.7-0.1l65.3,59.6
		c0.5,0.5,0.5,1.2,0.1,1.7C308.5,410,308.2,410.1,307.9,410.1z"/>
</g>
<g>
	<path class="st0" d="M235.4,305.3c-0.2,0-0.4-0.1-0.6-0.2c-0.6-0.4-0.7-1.1-0.4-1.7l37.1-59.6c0.4-0.6,1.1-0.7,1.7-0.4
		c0.6,0.4,0.7,1.1,0.4,1.7l-37.1,59.6C236.2,305.1,235.8,305.3,235.4,305.3z"/>
</g>
<g>
	<path class="st0" d="M204.7,301.3c-0.6,0-1.1-0.4-1.2-0.9l-21.8-79.7c-0.2-0.7,0.2-1.3,0.9-1.5c0.7-0.2,1.4,0.2,1.5,0.9l21.8,79.7
		c0.2,0.7-0.2,1.3-0.9,1.5C204.9,301.3,204.8,301.3,204.7,301.3z"/>
</g>
<g>
	<path class="st0" d="M424,361.8c-5.1,0-9.3-4.2-9.3-9.3s4.2-9.3,9.3-9.3c5.1,0,9.3,4.2,9.3,9.3S429.1,361.8,424,361.8z M424,345.6
		c-3.8,0-6.9,3.1-6.9,6.9c0,3.8,3.1,6.9,6.9,6.9c3.8,0,6.9-3.1,6.9-6.9C430.8,348.7,427.7,345.6,424,345.6z"/>
</g>
<g>
	<path class="st0" d="M233.7,458.5c-5.1,0-9.3-4.2-9.3-9.3c0-5.1,4.2-9.3,9.3-9.3c5.1,0,9.3,4.2,9.3,9.3
		C243,454.3,238.9,458.5,233.7,458.5z M233.7,442.4c-3.8,0-6.9,3.1-6.9,6.9c0,3.8,3.1,6.9,6.9,6.9c3.8,0,6.9-3.1,6.9-6.9
		C240.6,445.4,237.5,442.4,233.7,442.4z"/>
</g>
<g>
	<path class="st0" d="M348.2,219.9c-5.1,0-9.3-4.2-9.3-9.3s4.2-9.3,9.3-9.3c5.1,0,9.3,4.2,9.3,9.3S353.3,219.9,348.2,219.9z
		 M348.2,203.8c-3.8,0-6.9,3.1-6.9,6.9c0,3.8,3.1,6.9,6.9,6.9c3.8,0,6.9-3.1,6.9-6.9C355,206.8,352,203.8,348.2,203.8z"/>
</g>
<g>
	<path class="st0" d="M124.7,356.3c-5.1,0-9.3-4.2-9.3-9.3c0-5.1,4.2-9.3,9.3-9.3c5.1,0,9.3,4.2,9.3,9.3
		C134,352.1,129.8,356.3,124.7,356.3z M124.7,340.1c-3.8,0-6.9,3.1-6.9,6.9c0,3.8,3.1,6.9,6.9,6.9c3.8,0,6.9-3.1,6.9-6.9
		C131.6,343.2,128.5,340.1,124.7,340.1z"/>
</g>
<g>
	<path class="st0" d="M363.5,351.3c-5.1,0-9.3-4.2-9.3-9.3c0-5.1,4.2-9.3,9.3-9.3s9.3,4.2,9.3,9.3
		C372.8,347.1,368.6,351.3,363.5,351.3z M363.5,335.2c-3.8,0-6.9,3.1-6.9,6.9c0,3.8,3.1,6.9,6.9,6.9c3.8,0,6.9-3.1,6.9-6.9
		C370.4,338.2,367.3,335.2,363.5,335.2z"/>
</g>
<g>
	<path class="st0" d="M193.4,179.6c-5.1,0-9.3-4.2-9.3-9.3c0-5.1,4.2-9.3,9.3-9.3c5.1,0,9.3,4.2,9.3,9.3
		C202.7,175.4,198.5,179.6,193.4,179.6z M193.4,163.5c-3.8,0-6.9,3.1-6.9,6.9c0,3.8,3.1,6.9,6.9,6.9c3.8,0,6.9-3.1,6.9-6.9
		C200.3,166.5,197.2,163.5,193.4,163.5z"/>
</g>
<g>
	<path class="st0" d="M143.5,282c-5.1,0-9.3-4.2-9.3-9.3c0-5.1,4.2-9.3,9.3-9.3c5.1,0,9.3,4.2,9.3,9.3
		C152.7,277.8,148.6,282,143.5,282z M143.5,265.8c-3.8,0-6.9,3.1-6.9,6.9c0,3.8,3.1,6.9,6.9,6.9c3.8,0,6.9-3.1,6.9-6.9
		C150.3,268.9,147.2,265.8,143.5,265.8z"/>
</g>
<g>
	<path class="st0" d="M482.8,182c-5.1,0-9.3-4.2-9.3-9.3s4.2-9.3,9.3-9.3c5.1,0,9.3,4.2,9.3,9.3S487.9,182,482.8,182z M482.8,165.9
		c-3.8,0-6.9,3.1-6.9,6.9c0,3.8,3.1,6.9,6.9,6.9c3.8,0,6.9-3.1,6.9-6.9C489.7,169,486.6,165.9,482.8,165.9z"/>
</g>
<g>
	<path class="st0" d="M291.8,171.5c-5.1,0-9.3-4.2-9.3-9.3s4.2-9.3,9.3-9.3c5.1,0,9.3,4.2,9.3,9.3S296.9,171.5,291.8,171.5z
		 M291.8,155.4c-3.8,0-6.9,3.1-6.9,6.9c0,3.8,3.1,6.9,6.9,6.9c3.8,0,6.9-3.1,6.9-6.9C298.6,158.5,295.6,155.4,291.8,155.4z"/>
</g>
<g>
	<path class="st0" d="M364.3,405.3c-0.3,0-0.7-0.1-0.9-0.4c-0.4-0.5-0.4-1.3,0.2-1.7l54.8-45.1c0.5-0.4,1.3-0.4,1.7,0.2
		c0.4,0.5,0.4,1.3-0.2,1.7L365.1,405C364.9,405.2,364.6,405.3,364.3,405.3z"/>
</g>
<g>
	<path class="st0" d="M430.4,348.1c-0.3,0-0.5-0.1-0.8-0.3c-0.5-0.4-0.6-1.2-0.2-1.7l56.4-69.3c0.4-0.5,1.2-0.6,1.7-0.2
		c0.5,0.4,0.6,1.2,0.2,1.7l-56.4,69.3C431.1,347.9,430.8,348.1,430.4,348.1z"/>
</g>
<g>
	
		<rect x="381.1" y="435.9" transform="matrix(0.9948 0.1017 -0.1017 0.9948 46.517 -39.3029)" class="st0" width="55.5" height="1.6"/>
</g>
<g>
	<polygon class="st0" points="448.9,419.8 427.2,360.8 428.9,360.3 450.5,419.3 	"/>
</g>
<g>
	
		<rect x="445.7" y="240.8" transform="matrix(0.3381 0.9411 -0.9411 0.3381 548.0057 -242.6819)" class="st0" width="1.6" height="54.8"/>
</g>
<g>
	
		<rect x="178.1" y="345.7" transform="matrix(0.7071 0.7071 -0.7071 0.7071 311.3434 -19.2677)" class="st0" width="1.6" height="41"/>
</g>
<g>
	<path class="st0" d="M286.1,203.4c-0.1,0-0.1,0-0.2,0c-0.7-0.1-1.1-0.7-1-1.4l5.6-31.8c0.1-0.7,0.7-1.1,1.4-1
		c0.7,0.1,1.1,0.7,1,1.4l-5.6,31.8C287.2,203,286.7,203.4,286.1,203.4z"/>
</g>
<g>
	<path class="st0" d="M307.9,219.1c-0.6,0-1.1-0.4-1.2-0.9c-0.1-0.7,0.3-1.3,0.9-1.4l32.2-7.3c0.7-0.1,1.3,0.3,1.4,0.9
		c0.1,0.7-0.3,1.3-0.9,1.4l-32.2,7.3C308.1,219.1,308,219.1,307.9,219.1z"/>
</g>
<g>
	<path class="st0" d="M233.7,442.4c-0.6,0-1.1-0.4-1.2-1l-15.7-77.8c-0.1-0.7,0.3-1.3,0.9-1.4c0.7-0.1,1.3,0.3,1.4,0.9l15.7,77.8
		c0.1,0.7-0.3,1.3-0.9,1.4C233.9,442.4,233.8,442.4,233.7,442.4z"/>
</g>
<g>
	<path class="st0" d="M241.8,450.4c-0.6,0-1.2-0.5-1.2-1.1c0-0.7,0.5-1.2,1.1-1.3l55.6-3.2c0.7,0,1.2,0.5,1.3,1.1
		c0,0.7-0.5,1.2-1.1,1.3L241.8,450.4C241.8,450.4,241.8,450.4,241.8,450.4z"/>
</g>
<g>
	<path class="st0" d="M334.5,397.2c-0.5,0-1-0.3-1.2-0.9l-41.9-147.5c-0.2-0.6,0.2-1.3,0.8-1.5c0.6-0.2,1.3,0.2,1.5,0.8l41.9,147.5
		c0.2,0.6-0.2,1.3-0.8,1.5C334.7,397.2,334.6,397.2,334.5,397.2z"/>
</g>
<g>
	<path class="st0" d="M263.6,219.1c-0.1,0-0.1,0-0.2,0L192,207.8c-0.7-0.1-1.1-0.7-1-1.4c0.1-0.7,0.7-1.1,1.4-1l71.3,11.3
		c0.7,0.1,1.1,0.7,1,1.4C264.7,218.7,264.2,219.1,263.6,219.1z"/>
</g>
<g>
	<circle class="st0" cx="411" cy="212.5" r="6.4"/>
</g>
<g>
	<circle class="st0" cx="135.4" cy="176" r="6.4"/>
</g>
<g>
	<circle class="st0" cx="180.5" cy="437.1" r="6.4"/>
</g>
<polyline class="st0" points="496.5,218.4 494.9,218.9 482,181.1 483.6,180.5 496.5,218.4 "/>
<g>
	<polygon class="st0" points="476,233.1 412.2,213.4 413,212 476.7,231.7 	"/>
</g>
<g>
	
		<rect x="353.8" y="348.4" transform="matrix(0.9653 0.261 -0.261 0.9653 109.6598 -79.6344)" class="st0" width="1.6" height="49.3"/>
</g>
<g>
	
		<rect x="137.6" y="187.3" transform="matrix(0.8321 0.5547 -0.5547 0.8321 130.1007 -53.5845)" class="st0" width="32" height="1.6"/>
</g>
<g>
	
		<rect x="141" y="295.7" transform="matrix(0.7419 0.6705 -0.6705 0.7419 242.4772 -36.969)" class="st0" width="56.5" height="1.6"/>
</g>
<g>
	
		<rect x="190.6" y="358.2" transform="matrix(0.9627 0.2706 -0.2706 0.9627 114.9648 -36.9358)" class="st0" width="1.6" height="80.4"/>
</g>
<g>
	
		<rect x="302.6" y="255.8" transform="matrix(0.8875 0.4608 -0.4608 0.8875 157.5853 -132.3326)" class="st0" width="94.5" height="1.6"/>
</g>
<g>
	<path class="st0" d="M183.8,194.5c-0.1,0-0.2,0-0.3-0.1c-0.4-0.2-0.6-0.6-0.4-1.1l6.4-15.3c0.2-0.4,0.6-0.6,1.1-0.4
		c0.4,0.2,0.6,0.6,0.4,1.1l-6.4,15.3C184.4,194.3,184.1,194.5,183.8,194.5z"/>
</g>
<g>
	<path class="st0" d="M142.7,379.1c-0.3,0-0.6-0.1-0.7-0.4l-13.7-24.2c-0.2-0.4-0.1-0.9,0.3-1.1c0.4-0.2,0.9-0.1,1.1,0.3l13.7,24.2
		c0.2,0.4,0.1,0.9-0.3,1.1C142.9,379.1,142.8,379.1,142.7,379.1z"/>
</g>
<g>
	<path class="st0" d="M366.7,334.8c-0.2,0-0.3,0-0.5-0.1c-0.4-0.3-0.5-0.8-0.2-1.1l29-42.7c0.3-0.4,0.8-0.5,1.1-0.2
		c0.4,0.3,0.5,0.8,0.2,1.1l-29,42.7C367.2,334.6,367,334.8,366.7,334.8z"/>
</g>
<g>
	<path class="st0" d="M290.7,218.8c0-2.9-2.4-5.3-5.3-5.3c-2.9,0-5.3,2.4-5.3,5.3c0,2.9,2.4,5.3,5.3,5.3
		C288.3,224.1,290.7,221.7,290.7,218.8z M281.4,218.9c0,0-0.2-1.5,0.9-2.7c0.8,0.8,3,2.7,7,2.7c0,2.2-1.8,4-4,4
		C283.2,222.9,281.4,221.1,281.4,218.9z"/>
	<path class="st0" d="M276.3,228.2v2.3v3c0,0.8,0.7,1.5,1.5,1.5h15.2c0.8,0,1.5-0.7,1.5-1.5v-3v-2.3c0-1.7-1.4-3-3-3h-2.7
		c-0.2,0-0.4,0.1-0.5,0.3l-2.6,3.7c-0.1,0.2-0.3,0.2-0.4,0l-2.6-3.7c-0.1-0.2-0.3-0.3-0.5-0.3h-2.7
		C277.6,225.2,276.3,226.5,276.3,228.2z"/>
</g>
<g>
	<path class="st0" d="M152.8,380.5c-2.3,0-4.2,1.9-4.2,4.2v1.3c0,0.4-0.2,1.4-0.8,1.4c-0.8-0.1,0.2,1.4,1.9,1.5c0,0,0,0,0,0h6.2
		c1.7,0,2.7-1.6,1.9-1.5c-0.8,0.1-0.8-1.5-0.8-1.5v-1.1C156.9,382.3,155.1,380.5,152.8,380.5z M152.8,381.4c1.4,0,2.8,1,2.8,2.2
		c0,0.1,0,0.1,0,0.2c0,0.1,0,0.1-0.1-0.1c-0.3-0.9-1.5-1.6-2.7-1.6c-1.2,0-2.4,0.7-2.8,1.6c0,0.1-0.1,0.2-0.1,0.1c0-0.1,0-0.1,0-0.2
		C149.9,382.4,151.3,381.4,152.8,381.4z M152.8,387.8c-1.7,0-3.1-1.3-3.1-3c0,0,1.4-1.2,3.1-1.2c1.8,0,3.1,1.2,3.1,1.2
		C155.9,386.4,154.5,387.8,152.8,387.8z"/>
	<path class="st0" d="M146.5,391.9v4.2c0,0.6,0.5,1,1,1h1h8.3h1c0.6,0,1-0.5,1-1v-4.2c0-1.1-0.9-2.1-2.1-2.1H156
		c-0.1,0-0.4,0.1-0.5,0.1l-1.1,0.7c-0.1,0.1-0.3,0.3-0.3,0.4l-1.2,4.2c0,0.1-0.1,0.1-0.2,0l-1.3-4.1c0-0.1-0.2-0.3-0.3-0.4L150,390
		c-0.1-0.1-0.3-0.1-0.5-0.1h-0.9C147.5,389.8,146.5,390.8,146.5,391.9z M151.1,393.8c0.2,0,0.4,0.2,0.4,0.4c0,0.2-0.2,0.4-0.4,0.4
		c-0.2,0-0.4-0.2-0.4-0.4C150.7,394,150.9,393.8,151.1,393.8z M151.1,395.4c0.2,0,0.4,0.2,0.4,0.4c0,0.2-0.2,0.4-0.4,0.4
		c-0.2,0-0.4-0.2-0.4-0.4C150.7,395.6,150.9,395.4,151.1,395.4z"/>
</g>
<g>
	<g>
		<g>
			<path class="st0" d="M106.6,483.4c-14,0-25.5-11.4-25.5-25.5c0-14,11.4-25.5,25.5-25.5c14,0,25.5,11.4,25.5,25.5
				C132.1,471.9,120.7,483.4,106.6,483.4z M106.6,435.4c-12.4,0-22.5,10.1-22.5,22.5c0,12.4,10.1,22.5,22.5,22.5
				c12.4,0,22.5-10.1,22.5-22.5C129.1,445.5,119,435.4,106.6,435.4z"/>
		</g>
	</g>
</g>
<g>
	<g>
		<g>
			<path class="st0" d="M410.4,181.5c-11.2,0-20.4-9.1-20.4-20.4c0-11.2,9.1-20.4,20.4-20.4c11.2,0,20.4,9.1,20.4,20.4
				C430.8,172.4,421.6,181.5,410.4,181.5z M410.4,143.2c-9.9,0-18,8.1-18,18c0,9.9,8.1,18,18,18c9.9,0,18-8.1,18-18
				C428.4,151.2,420.3,143.2,410.4,143.2z"/>
		</g>
	</g>
</g>
<g>
	<path class="st0" d="M119.2,437.5c-0.2,0-0.3,0-0.5-0.1c-0.4-0.3-0.5-0.8-0.2-1.1l24.9-36.5c0.3-0.4,0.8-0.5,1.1-0.2
		c0.4,0.3,0.5,0.8,0.2,1.1l-24.9,36.5C119.7,437.4,119.4,437.5,119.2,437.5z"/>
</g>
<g>
	<path class="st0" d="M353.7,205.1c-0.2,0-0.3,0-0.5-0.1c-0.4-0.3-0.5-0.8-0.2-1.1l41.5-31.3c0.3-0.4,0.8-0.5,1.1-0.2
		c0.4,0.3,0.5,0.8,0.2,1.1l-41.5,31.3C354.2,205,354,205.1,353.7,205.1z"/>
</g>
<g>
	<polygon class="st0" points="475,169.8 428.8,163.4 429.7,162 475.9,168.4 	"/>
</g>
<g>
	<path class="st0" d="M407.9,267.8c-0.2,0-0.4-0.1-0.6-0.2c-0.6-0.4-0.7-1.1-0.4-1.7l4.1-84.8c0.4-0.6,1.1-0.7,1.7-0.4
		c0.6,0.4,0.7,1.1,0.4,1.7l-4.1,84.8C408.7,267.6,408.3,267.8,407.9,267.8z"/>
</g>
<g>
	<path class="st0" d="M106.6,469.4c-0.1,0-0.1,0-0.2,0c-2.4-0.8-4.5-2.3-6.1-4.4c-1.3-1.7-2.3-3.8-3.1-6.3c-1.3-4.2-1.3-7.9-1.3-8
		c0-0.4,0.3-0.7,0.7-0.7c0.1,0,5.7-0.6,9.6-3.4c0.3-0.2,0.6-0.2,0.9,0c3.9,2.8,9.5,3.4,9.6,3.4c0.4,0,0.7,0.3,0.7,0.7
		c0,0.2,0,3.9-1.3,8c-0.7,2.5-1.8,4.6-3.1,6.3c-1.6,2.2-3.7,3.6-6.1,4.4C106.8,469.4,106.7,469.4,106.6,469.4z M97.4,451.3
		c0.1,1.2,0.3,4,1.2,7c1.6,5.1,4.2,8.3,8,9.6c3.8-1.3,6.5-4.5,8-9.6c0.9-3,1.1-5.8,1.2-7c-1.6-0.2-5.8-1-9.2-3.3
		C103.2,450.3,99,451.1,97.4,451.3z"/>
	<path class="st0" d="M106.2,461.4c-0.2,0-0.3-0.1-0.5-0.2l-2.6-2.2c-0.3-0.3-0.3-0.7-0.1-1c0.3-0.3,0.7-0.3,1-0.1l2,1.7l4-5.3
		c0.2-0.3,0.7-0.4,1-0.1c0.3,0.2,0.4,0.7,0.1,1l-4.5,5.9C106.7,461.3,106.5,461.4,106.2,461.4C106.3,461.4,106.3,461.4,106.2,461.4z
		"/>
</g>
<g>
	<line class="st0" x1="129" y1="450.3" x2="177.7" y2="439"/>
	
		<rect x="152.4" y="419.7" transform="matrix(0.2267 0.974 -0.974 0.2267 551.6674 194.5276)" class="st0" width="1.8" height="50"/>
</g>
<g>
	<line class="st0" x1="181.3" y1="437.3" x2="226.9" y2="449.2"/>
	
		<rect x="180.6" y="442.4" transform="matrix(0.9677 0.2521 -0.2521 0.9677 118.3446 -37.1376)" class="st0" width="47.1" height="1.8"/>
</g>
<g>
	<line class="st0" x1="356.3" y1="212.3" x2="409" y2="211.7"/>
	
		<rect x="381.8" y="185.7" transform="matrix(1.302114e-002 0.9999 -0.9999 1.302114e-002 589.6675 -173.3929)" class="st0" width="1.8" height="52.7"/>
</g>
<g>
	<g>
		<path class="st0" d="M227,325.8C227,325.7,227,325.7,227,325.8v-2.9c0-4.8-4-8.8-8.9-8.8c-4.9,0-8.9,3.9-8.9,8.8v3.4
			c-1.8,2.1-2.9,4.8-2.9,7.7c0,6.5,5.4,11.9,12,11.9c6.6,0,12-5.3,12-11.9C230.3,330.8,229.1,327.9,227,325.8z M218.2,316.7
			c3.4,0,6.2,2.8,6.2,6.1v0.8c-1.8-1-3.8-1.6-6-1.6c-2.4,0-4.6,0.7-6.4,1.9v-1.1C211.9,319.5,214.7,316.7,218.2,316.7L218.2,316.7z
			 M218.4,343.2c-5.1,0-9.3-4.1-9.3-9.2c0-5.1,4.2-9.2,9.3-9.2c5.1,0,9.3,4.1,9.3,9.2C227.7,339,223.5,343.2,218.4,343.2
			L218.4,343.2z"/>
		<path class="st0" d="M218.4,329.8c-1.7,0-3.1,1.4-3.1,3c0,1.2,0.7,2.3,1.7,2.7v2.4c0,0.7,0.6,1.3,1.3,1.3c0.7,0,1.3-0.6,1.3-1.3
			v-2.4c1-0.5,1.7-1.5,1.7-2.7C221.5,331.2,220.1,329.8,218.4,329.8z M218.4,332.5c0.2,0,0.4,0.2,0.4,0.4s-0.2,0.4-0.4,0.4
			c-0.2,0-0.4-0.2-0.4-0.4C218,332.7,218.2,332.5,218.4,332.5L218.4,332.5z"/>
	</g>
</g>
<g>
	<path class="st0" d="M177.5,214.5c0,0-0.1,0-0.1,0c-1.6-0.5-2.9-1.5-4-2.9c-0.8-1.1-1.5-2.5-2-4.1c-0.8-2.7-0.8-5.1-0.8-5.2
		c0-0.2,0.2-0.4,0.4-0.5c0,0,3.7-0.4,6.3-2.2c0.2-0.1,0.4-0.1,0.6,0c2.6,1.9,6.2,2.2,6.3,2.2c0.2,0,0.4,0.2,0.4,0.5
		c0,0.1,0,2.5-0.8,5.2c-0.5,1.6-1.2,3-2,4.1c-1.1,1.4-2.4,2.4-4,2.9C177.6,214.5,177.6,214.5,177.5,214.5z M171.5,202.7
		c0,0.8,0.2,2.6,0.8,4.6c1,3.3,2.8,5.4,5.2,6.3c2.5-0.8,4.2-3,5.2-6.3c0.6-1.9,0.7-3.8,0.8-4.5c-1.1-0.2-3.8-0.7-6-2.2
		C175.3,202,172.6,202.5,171.5,202.7z"/>
	<path class="st0" d="M177.3,209.3c-0.1,0-0.2,0-0.3-0.1l-1.7-1.5c-0.2-0.2-0.2-0.5-0.1-0.7c0.2-0.2,0.5-0.2,0.7-0.1l1.3,1.1
		l2.6-3.5c0.2-0.2,0.5-0.2,0.7-0.1c0.2,0.2,0.2,0.5,0.1,0.7l-2.9,3.9C177.6,209.2,177.5,209.3,177.3,209.3
		C177.3,209.3,177.3,209.3,177.3,209.3z"/>
</g>
<g>
	<g>
		<path class="st0" d="M466.9,437.2C466.9,437.1,466.9,437.1,466.9,437.2V435c0-3.6-3-6.6-6.6-6.6c-3.7,0-6.6,2.9-6.6,6.6v2.5
			c-1.3,1.6-2.1,3.6-2.1,5.8c0,4.9,4,8.9,8.9,8.9c4.9,0,8.9-4,8.9-8.9C469.3,440.9,468.4,438.7,466.9,437.2z M460.2,430.4
			c2.6,0,4.6,2.1,4.6,4.6v0.6c-1.3-0.8-2.8-1.2-4.5-1.2c-1.8,0-3.4,0.5-4.8,1.4V435C455.6,432.5,457.6,430.4,460.2,430.4
			L460.2,430.4z M460.4,450.2c-3.8,0-6.9-3.1-6.9-6.9c0-3.8,3.1-6.9,6.9-6.9c3.8,0,6.9,3.1,6.9,6.9
			C467.3,447.1,464.2,450.2,460.4,450.2L460.4,450.2z"/>
		<path class="st0" d="M460.4,440.2c-1.3,0-2.3,1-2.3,2.3c0,0.9,0.5,1.7,1.3,2.1v1.8c0,0.5,0.4,1,1,1c0.6,0,1-0.4,1-1v-1.8
			c0.8-0.4,1.3-1.1,1.3-2.1C462.7,441.2,461.6,440.2,460.4,440.2z M460.4,442.2c0.2,0,0.3,0.1,0.3,0.3s-0.1,0.3-0.3,0.3
			c-0.2,0-0.3-0.1-0.3-0.3C460.1,442.3,460.2,442.2,460.4,442.2L460.4,442.2z"/>
	</g>
</g>
<g>
	<path class="st0" d="M410.5,171.6c-0.1,0-0.1,0-0.2,0c-2.2-0.7-4-2-5.5-3.9c-1.2-1.5-2.1-3.4-2.7-5.6c-1.1-3.7-1.1-7-1.1-7.2
		c0-0.3,0.3-0.6,0.6-0.6c0,0,5.1-0.5,8.6-3.1c0.2-0.2,0.5-0.2,0.8,0c3.5,2.5,8.5,3.1,8.6,3.1c0.3,0,0.6,0.3,0.6,0.6
		c0,0.1,0,3.5-1.1,7.2c-0.7,2.2-1.6,4.1-2.8,5.6c-1.5,1.9-3.3,3.3-5.5,3.9C410.7,171.6,410.6,171.6,410.5,171.6z M402.3,155.4
		c0.1,1.1,0.3,3.6,1.1,6.3c1.4,4.6,3.8,7.4,7.2,8.6c3.4-1.2,5.8-4.1,7.2-8.6c0.8-2.7,1-5.1,1.1-6.2c-1.5-0.2-5.2-0.9-8.2-3
		C407.5,154.5,403.7,155.2,402.3,155.4z"/>
	<path class="st0" d="M410.2,164.5c-0.2,0-0.3-0.1-0.4-0.2l-2.3-2c-0.3-0.2-0.3-0.6-0.1-0.9c0.2-0.3,0.6-0.3,0.9-0.1l1.8,1.6
		l3.6-4.7c0.2-0.3,0.6-0.3,0.9-0.1c0.3,0.2,0.3,0.6,0.1,0.9l-4,5.3C410.6,164.3,410.4,164.4,410.2,164.5
		C410.2,164.5,410.2,164.5,410.2,164.5z"/>
</g>
<g>
	<path class="st0" d="M406.5,289.5c0,0-0.1,0-0.1,0c-1.6-0.5-2.9-1.5-4-2.9c-0.8-1.1-1.5-2.5-2-4.1c-0.8-2.7-0.8-5.1-0.8-5.2
		c0-0.2,0.2-0.4,0.4-0.5c0,0,3.7-0.4,6.3-2.2c0.2-0.1,0.4-0.1,0.6,0c2.6,1.9,6.2,2.2,6.3,2.2c0.2,0,0.4,0.2,0.4,0.5
		c0,0.1,0,2.5-0.8,5.2c-0.5,1.6-1.2,3-2,4.1c-1.1,1.4-2.4,2.4-4,2.9C406.6,289.5,406.6,289.5,406.5,289.5z M400.5,277.7
		c0,0.8,0.2,2.6,0.8,4.6c1,3.3,2.8,5.4,5.2,6.3c2.5-0.8,4.2-3,5.2-6.3c0.6-1.9,0.7-3.8,0.8-4.5c-1.1-0.2-3.8-0.7-6-2.2
		C404.3,277,401.6,277.5,400.5,277.7z"/>
	<path class="st0" d="M406.3,284.3c-0.1,0-0.2,0-0.3-0.1l-1.7-1.5c-0.2-0.2-0.2-0.5-0.1-0.7c0.2-0.2,0.5-0.2,0.7-0.1l1.3,1.1
		l2.6-3.5c0.2-0.2,0.5-0.2,0.7-0.1c0.2,0.2,0.2,0.5,0.1,0.7l-2.9,3.9C406.6,284.2,406.5,284.3,406.3,284.3
		C406.3,284.3,406.3,284.3,406.3,284.3z"/>
</g>
<g>
	<path class="st0" d="M339.6,461.8c-0.1,0-0.3,0-0.4-0.1c-4.7-1.5-8.8-4.4-12-8.6c-2.5-3.3-4.5-7.4-6-12.3
		c-2.5-8.1-2.5-15.4-2.5-15.7c0-0.7,0.6-1.3,1.3-1.4c0.1,0,11.1-1.1,18.8-6.7c0.5-0.4,1.2-0.4,1.7,0c7.7,5.6,18.7,6.7,18.8,6.7
		c0.7,0.1,1.3,0.7,1.3,1.4c0,0.3,0,7.5-2.5,15.7c-1.5,4.8-3.5,8.9-6,12.3c-3.2,4.2-7.2,7.1-12,8.6
		C339.9,461.8,339.7,461.8,339.6,461.8z M321.6,426.4c0.1,2.4,0.6,7.9,2.4,13.7c3,9.9,8.3,16.3,15.7,18.8
		c7.4-2.5,12.7-8.9,15.7-18.9c1.8-5.8,2.2-11.2,2.3-13.6c-3.2-0.5-11.4-2-18-6.5C333,424.4,324.8,426,321.6,426.4z"/>
	<path class="st0" d="M338.8,446.2c-0.3,0-0.7-0.1-0.9-0.3l-5.1-4.4c-0.6-0.5-0.7-1.4-0.2-2c0.5-0.6,1.4-0.7,2-0.2l4,3.4l7.9-10.4
		c0.5-0.6,1.4-0.7,2-0.3c0.6,0.5,0.7,1.4,0.3,2l-8.8,11.5c-0.2,0.3-0.6,0.5-1,0.6C338.9,446.2,338.9,446.2,338.8,446.2z"/>
</g>
<path class="st0" d="M370.9,465.5l53.8,34.5h4.5l-56.9-36.5c-0.6-0.4-1.3-0.2-1.7,0.4C370.2,464.4,370.4,465.2,370.9,465.5z"/>
<path class="st0" d="M178,500l49.3-44.3c0.5-0.4,0.5-1.2,0.1-1.7c-0.4-0.5-1.2-0.5-1.7-0.1l-51.2,46H178z"/>
<path class="st0" d="M95,500l7.7-18.3c0.2-0.4,0-0.9-0.4-1.1c-0.4-0.2-0.9,0-1.1,0.4l-8,19H95z"/>
<path class="st0" d="M371.7,500h1.9l-16.7-25.4c-0.2-0.4-0.7-0.5-1.1-0.2c-0.4,0.2-0.5,0.7-0.2,1.1L371.7,500z"/>
<path class="st0" d="M296.4,500l18.2-25.9c0.4-0.5,0.3-1.3-0.3-1.7c-0.5-0.4-1.3-0.3-1.7,0.3L293.4,500H296.4z"/>
<path class="st0" d="M238.4,500l-3.5-42.8c-0.1-0.7-0.6-1.2-1.3-1.1c-0.7,0.1-1.2,0.6-1.1,1.3L236,500H238.4z"/>
<polygon class="st0" points="491,500 471.4,460.9 470,461.7 489.2,500 "/>
<path class="st0" d="M500,118.8l-72.9,33c-0.3,0.4-0.2,0.9,0.2,1.1c0.1,0.1,0.3,0.1,0.5,0.1c0.3,0,0.5-0.1,0.7-0.4l71.6-32.4V118.8z
	"/>
<path class="st0" d="M500,455.8l-17.6-8.9c-0.4-0.2-0.9,0-1.1,0.4c-0.2,0.4,0,0.9,0.4,1.1l18.4,9.2V455.8z"/>
<path class="st0" d="M501,265.5c-4.9-0.5-8.8-4.7-8.8-9.7c0-5,3.8-9.2,8.8-9.7v-2.8c-2.1,0.2-4,0.9-6,1.9v-1.1c0-3.3,2.8-6,6-6.4
	v-2.8c-4.8,0.4-9,4.4-9,9.2v3.6c-1,2.2-2.8,5-2.8,8.1c0,6.6,5.3,11.9,11.8,12.5V265.5z"/>
<path class="st0" d="M500,331.7l-80.5-44.4c-0.4-0.2-0.9-0.1-1.1,0.3c-0.2,0.4-0.1,0.9,0.3,1.1l81.3,44.9V331.7z"/>
<polygon class="st0" points="500,413.5 479.9,426.8 480.8,428.1 500,415.4 "/>
</svg>
